<svg width="129" height="129" xmlns="http://www.w3.org/2000/svg">
 <g>
  <title>background</title>
  <rect x="-1" y="-1" width="131" height="131" id="canvas_background" fill="none"/>
 </g>

 <g>
  <title>Layer 1</title>
  <g id="svg_1">
   <g id="svg_2">
    <path d="m64.5,91.6c15.5,0 28,-12.6 28,-28s-12.6,-28 -28,-28s-28,12.6 -28,28s12.5,28 28,28zm0,-47.9c11,0 19.9,8.9 19.9,19.9c0,11 -8.9,19.9 -19.9,19.9s-19.9,-8.9 -19.9,-19.9c0,-11 8.9,-19.9 19.9,-19.9z" id="svg_3" fill="#f3c30f"/>
    <path d="m68.6,22.6l0,-12.9c0,-2.3 -1.8,-4.1 -4.1,-4.1s-4.1,1.8 -4.1,4.1l0,12.9c0,2.3 1.8,4.1 4.1,4.1s4.1,-1.8 4.1,-4.1z" id="svg_4" fill="#f3c30f"/>
    <path d="m60.4,104.6l0,12.9c0,2.3 1.8,4.1 4.1,4.1s4.1,-1.8 4.1,-4.1l0,-12.9c0,-2.3 -1.8,-4.1 -4.1,-4.1s-4.1,1.8 -4.1,4.1z" id="svg_5" fill="#f3c30f"/>
    <path d="m96.4,37.5l9.1,-9.1c1.6,-1.6 1.6,-4.2 0,-5.8c-1.6,-1.6 -4.2,-1.6 -5.8,0l-9.1,9.1c-1.6,1.6 -1.6,4.2 0,5.8c0.8,0.8 1.8,1.2 2.9,1.2s2.1,-0.4 2.9,-1.2z" id="svg_6" fill="#f3c30f"/>
    <path d="m23.5,104.6c0.8,0.8 1.8,1.2 2.9,1.2c1,0 2.1,-0.4 2.9,-1.2l9.1,-9.1c1.6,-1.6 1.6,-4.2 0,-5.8c-1.6,-1.6 -4.2,-1.6 -5.8,0l-9.1,9.1c-1.6,1.6 -1.6,4.2 0,5.8z" id="svg_7" fill="#f3c30f"/>
    <path d="m122.5,63.6c0,-2.3 -1.8,-4.1 -4.1,-4.1l-12.9,0c-2.3,0 -4.1,1.8 -4.1,4.1c0,2.3 1.8,4.1 4.1,4.1l12.9,0c2.2,0 4.1,-1.8 4.1,-4.1z" id="svg_8" fill="#f3c30f"/>
    <path d="m10.6,67.7l12.9,0c2.3,0 4.1,-1.8 4.1,-4.1c0,-2.3 -1.8,-4.1 -4.1,-4.1l-12.9,0c-2.3,0 -4.1,1.8 -4.1,4.1c0,2.3 1.9,4.1 4.1,4.1z" id="svg_9" fill="#f3c30f"/>
    <path d="m102.6,105.8c1,0 2.1,-0.4 2.9,-1.2c1.6,-1.6 1.6,-4.2 0,-5.8l-9.1,-9.1c-1.6,-1.6 -4.2,-1.6 -5.8,0c-1.6,1.6 -1.6,4.2 0,5.8l9.1,9.1c0.8,0.8 1.9,1.2 2.9,1.2z" id="svg_10" fill="#f3c30f"/>
    <path d="m38.4,37.5c1.6,-1.6 1.6,-4.2 0,-5.8l-9.1,-9.1c-1.6,-1.6 -4.2,-1.6 -5.8,0c-1.6,1.6 -1.6,4.2 0,5.8l9.1,9.1c0.8,0.8 1.8,1.2 2.9,1.2s2.1,-0.4 2.9,-1.2z" id="svg_11" fill="#f3c30f"/>
   </g>
  </g>
 </g>
</svg>